# xmcd
#
# Track frame offsets:
#	150
#	13436
#	26196
#	38757
#	50049
#	63013
#	76588
#	87334
#	97796
#	110277
#	120684
#	131477
#	141805
#	154085
#	165961
#	176111
#	188364
#	200926
#	211129
#	224069
#	236834
#	249224
#	262025
#	272813
#	284904
#
# Disc length: 3961 seconds
# Revision: 0
# Processed by: cddbd v1.5.2PL0 Copyright (c) Steve Scherf et al.
# Submitted via: dBpowerAMP V12.0
#
DISCID=6d0f7719
DTITLE=Various Artist - The R&B Years: 1955, Vol. 2
DYEAR=1955
DGENRE=Rock and Roll
TTITLE0=LaVern Baker - Play It Fair
TTITLE1=Ray Charles - Greenbacks
TTITLE2=B.B. King - Ten Long Years
TTITLE3=Junior Parker - There Better Be No Feet In Them Shoes
TTITLE4=Tab Smith - Spider's Web
TTITLE5=Roy Gaines - Loud Mouth Lucy
TTITLE6=Etta James - Good Rockin' Daddy
TTITLE7=Ray Charles - Blackjack
TTITLE8=Priscilla Bowman and Jay McShann - Hands Off
TTITLE9=The Cadillacs - Speed-O
TTITLE10=Little Richard - Tutti-Frutti
TTITLE11=Fats Domino - Poor Me
TTITLE12=Billy Bland - Chicken In The Basket
TTITLE13=The Midnighters - Rock and Roll Wedding
TTITLE14=Anita Tucker - Slow, Smooth and Easy
TTITLE15=Etta James - Woman
TTITLE16=Hal Singer - Hot Rod
TTITLE17=Little Willie John - Need Your Love So Bad
TTITLE18=Willie Mabon - Seventh Son
TTITLE19=Ruth Brown - I Want To Do More
TTITLE20=The Robins - Smokey Joe's Café
TTITLE21=Bobby Charles - Later Alligator
TTITLE22=Willie Egan - Come On
TTITLE23=T-Bone Walker - Why Not?
TTITLE24=Tony Allen - Night Owl
EXTD=
EXTT0=
EXTT1=
EXTT2=
EXTT3=
EXTT4=
EXTT5=
EXTT6=
EXTT7=
EXTT8=
EXTT9=
EXTT10=
EXTT11=
EXTT12=
EXTT13=
EXTT14=
EXTT15=
EXTT16=
EXTT17=
EXTT18=
EXTT19=
EXTT20=
EXTT21=
EXTT22=
EXTT23=
EXTT24=
PLAYORDER=
